{
	"asset":{
		"generator":"Khronos glTF Blender I/O v5.1.1",
		"version":"2.0"
	},
	"scene":0,
	"scenes":[
		{
			"name":"Scene",
			"nodes":[
				0
			]
		}
	],
	"nodes":[
		{
			"mesh":0,
			"name":"Sphere.002",
			"scale":[
				0.23763664066791534,
				0.23763664066791534,
				0.23763664066791534
			],
			"translation":[
				-0.7008815407752991,
				7,
				3.375020980834961
			]
		}
	],
	"materials":[
		{
			"doubleSided":true,
			"name":"volna",
			"pbrMetallicRoughness":{
				"baseColorTexture":{
					"index":0
				},
				"metallicFactor":0,
				"roughnessFactor":0.5
			}
		},
		{
			"doubleSided":true,
			"name":"Noge",
			"pbrMetallicRoughness":{
				"baseColorTexture":{
					"index":1
				},
				"metallicFactor":0,
				"roughnessFactor":0.5
			}
		}
	],
	"meshes":[
		{
			"name":"Sphere.002",
			"primitives":[
				{
					"attributes":{
						"POSITION":0,
						"NORMAL":1,
						"TEXCOORD_0":2
					},
					"indices":3,
					"material":0
				},
				{
					"attributes":{
						"POSITION":4,
						"NORMAL":5,
						"TEXCOORD_0":6
					},
					"indices":7,
					"material":1
				}
			]
		}
	],
	"textures":[
		{
			"sampler":0,
			"source":0
		},
		{
			"sampler":0,
			"source":1
		}
	],
	"images":[
		{
			"mimeType":"image/jpeg",
			"name":"Fabric019_1K-JPG_Color",
			"uri":"Fabric019_1K-JPG_Color.jpg"
		},
		{
			"mimeType":"image/jpeg",
			"name":"noge",
			"uri":"noge.jpg"
		}
	],
	"accessors":[
		{
			"bufferView":0,
			"componentType":5126,
			"count":6016,
			"max":[
				17.45746612548828,
				1.6592187881469727,
				1.2794544696807861
			],
			"min":[
				-8.396995544433594,
				-22.666622161865234,
				-44.437522888183594
			],
			"type":"VEC3"
		},
		{
			"bufferView":1,
			"componentType":5126,
			"count":6016,
			"type":"VEC3"
		},
		{
			"bufferView":2,
			"componentType":5126,
			"count":6016,
			"type":"VEC2"
		},
		{
			"bufferView":3,
			"componentType":5123,
			"count":8826,
			"type":"SCALAR"
		},
		{
			"bufferView":4,
			"componentType":5126,
			"count":6720,
			"max":[
				11.128395080566406,
				3.277012348175049,
				4.569187164306641
			],
			"min":[
				-2.694973945617676,
				-30.523271560668945,
				-35.755184173583984
			],
			"type":"VEC3"
		},
		{
			"bufferView":5,
			"componentType":5126,
			"count":6720,
			"type":"VEC3"
		},
		{
			"bufferView":6,
			"componentType":5126,
			"count":6720,
			"type":"VEC2"
		},
		{
			"bufferView":7,
			"componentType":5123,
			"count":10128,
			"type":"SCALAR"
		}
	],
	"bufferViews":[
		{
			"buffer":0,
			"byteLength":72192,
			"byteOffset":0,
			"target":34962
		},
		{
			"buffer":0,
			"byteLength":72192,
			"byteOffset":72192,
			"target":34962
		},
		{
			"buffer":0,
			"byteLength":48128,
			"byteOffset":144384,
			"target":34962
		},
		{
			"buffer":0,
			"byteLength":17652,
			"byteOffset":192512,
			"target":34963
		},
		{
			"buffer":0,
			"byteLength":80640,
			"byteOffset":210164,
			"target":34962
		},
		{
			"buffer":0,
			"byteLength":80640,
			"byteOffset":290804,
			"target":34962
		},
		{
			"buffer":0,
			"byteLength":53760,
			"byteOffset":371444,
			"target":34962
		},
		{
			"buffer":0,
			"byteLength":20256,
			"byteOffset":425204,
			"target":34963
		}
	],
	"samplers":[
		{
			"magFilter":9729,
			"minFilter":9987
		}
	],
	"buffers":[
		{
			"byteLength":445460,
			"uri":"Ovca.bin"
		}
	]
}
